<svg width="50" height="50" viewBox="0 0 50 50" fill="none" xmlns="http://www.w3.org/2000/svg">
<path d="M21.1737 3.33184C23.3671 1.42192 26.6329 1.42192 28.8263 3.33184C30.1083 4.44816 31.8138 4.94896 33.4958 4.70294C36.3736 4.28203 39.121 6.04769 39.9336 8.84023C40.4085 10.4724 41.5726 11.8158 43.1206 12.5182C45.769 13.7199 47.1257 16.6907 46.2995 19.4792C45.8167 21.1091 46.0696 22.8686 46.9921 24.2964C48.5705 26.7392 48.1057 29.9718 45.9031 31.871C44.6157 32.9811 43.8772 34.598 43.8814 36.2979C43.8885 39.2063 41.7498 41.6744 38.87 42.0813C37.1868 42.3192 35.6915 43.2802 34.7759 44.7125C33.2095 47.1629 30.0759 48.083 27.4333 46.8684C25.8888 46.1585 24.1112 46.1585 22.5667 46.8684C19.9241 48.083 16.7905 47.1629 15.2241 44.7125C14.3085 43.2802 12.8132 42.3192 11.13 42.0813C8.25022 41.6744 6.11153 39.2063 6.11862 36.2979C6.12276 34.598 5.38433 32.9811 4.09693 31.871C1.8943 29.9718 1.42952 26.7392 3.00786 24.2964C3.93037 22.8686 4.18334 21.1091 3.70045 19.4792C2.87428 16.6907 4.23097 13.7199 6.87945 12.5182C8.42744 11.8158 9.59149 10.4724 10.0664 8.84023C10.879 6.04769 13.6264 4.28203 16.5042 4.70294C18.1862 4.94896 19.8917 4.44816 21.1737 3.33184Z" fill="#FD4D35"/>
<path d="M8.99967 25.6537H13.6663V26.747H8.99967V25.6537ZM18.1355 29.7737C17.3266 29.7737 16.6333 29.5692 16.0555 29.1603C15.4777 28.7514 15.1044 28.1559 14.9355 27.3737H16.2422C16.3933 27.7737 16.6288 28.0759 16.9488 28.2803C17.2688 28.4759 17.6644 28.5737 18.1355 28.5737C18.7221 28.5737 19.1844 28.4003 19.5221 28.0537C19.8599 27.707 20.0288 27.2181 20.0288 26.587C20.0288 25.9648 19.8599 25.4804 19.5221 25.1337C19.1844 24.7871 18.7221 24.6137 18.1355 24.6137C17.7355 24.6137 17.3888 24.6937 17.0955 24.8537C16.8111 25.0137 16.5933 25.2093 16.4422 25.4404H15.2022L15.6022 20.3338H20.7355V21.4804H16.7488L16.5488 24.0271C17.0288 23.6182 17.6333 23.4137 18.3621 23.4137C18.7888 23.4137 19.1844 23.4893 19.5488 23.6404C19.9132 23.7915 20.2288 24.0093 20.4955 24.2937C20.7621 24.5693 20.9666 24.9026 21.1088 25.2937C21.2599 25.6759 21.3354 26.107 21.3354 26.587C21.3354 27.067 21.2599 27.507 21.1088 27.907C20.9577 28.2981 20.7399 28.6315 20.4555 28.907C20.1799 29.1826 19.8466 29.3959 19.4555 29.547C19.0644 29.6981 18.6244 29.7737 18.1355 29.7737ZM25.9411 29.7737C25.4522 29.7737 25.0078 29.6937 24.6078 29.5337C24.2167 29.3737 23.8834 29.1203 23.6078 28.7737C23.3323 28.4181 23.1189 27.9648 22.9678 27.4137C22.8167 26.8537 22.7412 26.1781 22.7412 25.387V24.6137C22.7412 23.8315 22.8167 23.1649 22.9678 22.6138C23.1189 22.0538 23.3323 21.6004 23.6078 21.2538C23.8922 20.8982 24.23 20.6404 24.6211 20.4804C25.0211 20.3116 25.4611 20.2271 25.9411 20.2271C26.43 20.2271 26.87 20.3071 27.2611 20.4671C27.6611 20.6271 27.9989 20.8849 28.2744 21.2404C28.55 21.5871 28.7633 22.0404 28.9144 22.6004C29.0655 23.1515 29.1411 23.8226 29.1411 24.6137V25.387C29.1411 26.1693 29.0655 26.8404 28.9144 27.4004C28.7633 27.9515 28.5455 28.4048 28.2611 28.7603C27.9855 29.107 27.6478 29.3648 27.2478 29.5337C26.8567 29.6937 26.4211 29.7737 25.9411 29.7737ZM25.9411 28.5737C26.2344 28.5737 26.4967 28.5248 26.7278 28.427C26.9678 28.3203 27.1678 28.147 27.3278 27.907C27.4878 27.6581 27.6122 27.3292 27.7011 26.9204C27.79 26.5115 27.8344 26.0004 27.8344 25.387V24.6137C27.8344 24.0004 27.79 23.4937 27.7011 23.0937C27.6122 22.6849 27.4833 22.356 27.3144 22.1071C27.1544 21.8582 26.9544 21.6849 26.7144 21.5871C26.4833 21.4804 26.2256 21.4271 25.9411 21.4271C25.6478 21.4271 25.3811 21.4804 25.1411 21.5871C24.91 21.6849 24.7145 21.8582 24.5545 22.1071C24.3945 22.3471 24.27 22.6715 24.1811 23.0804C24.0922 23.4893 24.0478 24.0004 24.0478 24.6137V25.387C24.0478 26.0004 24.0922 26.5115 24.1811 26.9204C24.27 27.3204 24.3945 27.6448 24.5545 27.8937C24.7234 28.1426 24.9233 28.3203 25.1545 28.427C25.3945 28.5248 25.6567 28.5737 25.9411 28.5737ZM32.8124 25.1071C32.4746 25.1071 32.1635 25.0537 31.8791 24.9471C31.6035 24.8404 31.3635 24.6893 31.1591 24.4937C30.9635 24.2982 30.8124 24.0671 30.7057 23.8004C30.5991 23.5337 30.5457 23.2404 30.5457 22.9204V22.4138C30.5457 22.0938 30.5991 21.8004 30.7057 21.5338C30.8124 21.2671 30.9635 21.036 31.1591 20.8404C31.3635 20.6449 31.6035 20.4938 31.8791 20.3871C32.1635 20.2804 32.4746 20.2271 32.8124 20.2271C33.1502 20.2271 33.4568 20.2804 33.7324 20.3871C34.0079 20.4938 34.2435 20.6449 34.439 20.8404C34.6435 21.036 34.799 21.2671 34.9057 21.5338C35.0212 21.8004 35.079 22.0938 35.079 22.4138V22.9204C35.079 23.2404 35.0212 23.5337 34.9057 23.8004C34.799 24.0671 34.6435 24.2982 34.439 24.4937C34.2435 24.6893 34.0079 24.8404 33.7324 24.9471C33.4568 25.0537 33.1502 25.1071 32.8124 25.1071ZM32.8124 24.0671C33.159 24.0671 33.4301 23.9693 33.6257 23.7737C33.8301 23.5782 33.9324 23.2937 33.9324 22.9204V22.4138C33.9324 22.0404 33.8301 21.756 33.6257 21.5604C33.4301 21.3649 33.159 21.2671 32.8124 21.2671C32.4657 21.2671 32.1902 21.3649 31.9857 21.5604C31.7902 21.756 31.6924 22.0404 31.6924 22.4138V22.9204C31.6924 23.2937 31.7902 23.5782 31.9857 23.7737C32.1902 23.9693 32.4657 24.0671 32.8124 24.0671ZM39.2123 29.7737C38.8745 29.7737 38.5634 29.7203 38.279 29.6137C38.0034 29.507 37.7634 29.3559 37.559 29.1603C37.3634 28.9648 37.2123 28.7337 37.1057 28.467C36.999 28.2003 36.9457 27.907 36.9457 27.587V27.0804C36.9457 26.7604 36.999 26.467 37.1057 26.2004C37.2123 25.9337 37.3634 25.7026 37.559 25.507C37.7634 25.3115 38.0034 25.1604 38.279 25.0537C38.5634 24.9471 38.8745 24.8937 39.2123 24.8937C39.5501 24.8937 39.8567 24.9471 40.1323 25.0537C40.4078 25.1604 40.6434 25.3115 40.8389 25.507C41.0434 25.7026 41.1989 25.9337 41.3056 26.2004C41.4212 26.467 41.4789 26.7604 41.4789 27.0804V27.587C41.4789 27.907 41.4212 28.2003 41.3056 28.467C41.1989 28.7337 41.0434 28.9648 40.8389 29.1603C40.6434 29.3559 40.4078 29.507 40.1323 29.6137C39.8567 29.7203 39.5501 29.7737 39.2123 29.7737ZM39.2123 28.7337C39.559 28.7337 39.8301 28.6359 40.0256 28.4403C40.2301 28.2448 40.3323 27.9603 40.3323 27.587V27.0804C40.3323 26.707 40.2301 26.4226 40.0256 26.227C39.8301 26.0315 39.559 25.9337 39.2123 25.9337C38.8656 25.9337 38.5901 26.0315 38.3856 26.227C38.1901 26.4226 38.0923 26.707 38.0923 27.0804V27.587C38.0923 27.9603 38.1901 28.2448 38.3856 28.4403C38.5901 28.6359 38.8656 28.7337 39.2123 28.7337ZM38.0656 20.3338H39.3456L33.959 29.667H32.679L38.0656 20.3338Z" fill="white"/>
</svg>
