<svg width="70" height="70" viewBox="0 0 70 70" fill="none" xmlns="http://www.w3.org/2000/svg">
<path d="M29.6432 4.66458C32.7139 1.99069 37.2861 1.99069 40.3568 4.66458V4.66458C42.1516 6.22742 44.5393 6.92854 46.8941 6.58412V6.58412C50.923 5.99484 54.7694 8.46677 55.907 12.3763V12.3763C56.5719 14.6614 58.2016 16.5421 60.3688 17.5255V17.5255C64.0766 19.2079 65.976 23.367 64.8194 27.2709V27.2709C64.1433 29.5527 64.4975 32.016 65.789 34.0149V34.0149C67.9987 37.4349 67.348 41.9606 64.2643 44.6195V44.6195C62.4619 46.1735 61.4281 48.4372 61.4339 50.8171V50.8171C61.4439 54.8888 58.4497 58.3442 54.418 58.9139V58.9139C52.0616 59.2468 49.9681 60.5923 48.6863 62.5974V62.5974C46.4933 66.0281 42.1063 67.3163 38.4067 65.6158V65.6158C36.2443 64.6219 33.7557 64.6219 31.5933 65.6158V65.6158C27.8937 67.3163 23.5067 66.0281 21.3137 62.5974V62.5974C20.0319 60.5923 17.9384 59.2468 15.582 58.9139V58.9139C11.5503 58.3442 8.55615 54.8888 8.56606 50.8171V50.8171C8.57186 48.4372 7.53806 46.1735 5.7357 44.6195V44.6195C2.65203 41.9606 2.00133 37.4349 4.211 34.0149V34.0149C5.50251 32.016 5.85667 29.5527 5.18064 27.2709V27.2709C4.02399 23.367 5.92336 19.2079 9.63123 17.5255V17.5255C11.7984 16.5421 13.4281 14.6614 14.093 12.3763V12.3763C15.2306 8.46677 19.077 5.99484 23.1059 6.58412V6.58412C25.4607 6.92854 27.8484 6.22742 29.6432 4.66458V4.66458Z" fill="#FD4D35"/>
<path d="M12.5997 36.7146H19.1329V38.2452H12.5997V36.7146ZM26.8831 30.872H20.3499V29.2667H28.7498V30.872L24.0272 42.3332H22.1232L26.8831 30.872ZM34.7318 42.4825C34.0473 42.4825 33.4251 42.3705 32.8651 42.1465C32.3176 41.9225 31.8509 41.5679 31.4652 41.0825C31.0794 40.5848 30.7807 39.9501 30.5692 39.1785C30.3576 38.3946 30.2518 37.4488 30.2518 36.3413V35.2586C30.2518 34.1635 30.3576 33.2302 30.5692 32.4586C30.7807 31.6746 31.0794 31.04 31.4652 30.5547C31.8634 30.0569 32.3363 29.696 32.8838 29.472C33.4438 29.2356 34.0598 29.1173 34.7318 29.1173C35.4162 29.1173 36.0322 29.2293 36.5798 29.4533C37.1397 29.6773 37.6126 30.0382 37.9984 30.536C38.3842 31.0213 38.6828 31.656 38.8944 32.44C39.1059 33.2115 39.2117 34.1511 39.2117 35.2586V36.3413C39.2117 37.4363 39.1059 38.3759 38.8944 39.1599C38.6828 39.9314 38.378 40.5661 37.9797 41.0639C37.594 41.5492 37.1211 41.9101 36.5611 42.1465C36.0135 42.3705 35.4038 42.4825 34.7318 42.4825ZM34.7318 40.8025C35.1424 40.8025 35.5095 40.7341 35.8331 40.5972C36.1691 40.4479 36.4491 40.2052 36.6731 39.8692C36.8971 39.5208 37.0713 39.0603 37.1957 38.4879C37.3202 37.9155 37.3824 37.1999 37.3824 36.3413V35.2586C37.3824 34.3999 37.3202 33.6906 37.1957 33.1306C37.0713 32.5582 36.8909 32.0978 36.6544 31.7493C36.4304 31.4009 36.1504 31.1582 35.8144 31.0213C35.4909 30.872 35.13 30.7973 34.7318 30.7973C34.3211 30.7973 33.9478 30.872 33.6118 31.0213C33.2882 31.1582 33.0145 31.4009 32.7905 31.7493C32.5665 32.0853 32.3923 32.5395 32.2678 33.112C32.1434 33.6844 32.0811 34.3999 32.0811 35.2586V36.3413C32.0811 37.1999 32.1434 37.9155 32.2678 38.4879C32.3923 39.0479 32.5665 39.5021 32.7905 39.8505C33.0269 40.199 33.3069 40.4479 33.6305 40.5972C33.9665 40.7341 34.3336 40.8025 34.7318 40.8025ZM44.3516 35.9493C43.8787 35.9493 43.4431 35.8746 43.0449 35.7253C42.6591 35.5759 42.3231 35.3644 42.0369 35.0906C41.7631 34.8168 41.5516 34.4933 41.4023 34.1199C41.2529 33.7466 41.1783 33.336 41.1783 32.888V32.1786C41.1783 31.7306 41.2529 31.32 41.4023 30.9467C41.5516 30.5733 41.7631 30.2498 42.0369 29.976C42.3231 29.7022 42.6591 29.4907 43.0449 29.3413C43.4431 29.192 43.8787 29.1173 44.3516 29.1173C44.8244 29.1173 45.2538 29.192 45.6395 29.3413C46.0253 29.4907 46.3551 29.7022 46.6289 29.976C46.9151 30.2498 47.1328 30.5733 47.2822 30.9467C47.444 31.32 47.5248 31.7306 47.5248 32.1786V32.888C47.5248 33.336 47.444 33.7466 47.2822 34.1199C47.1328 34.4933 46.9151 34.8168 46.6289 35.0906C46.3551 35.3644 46.0253 35.5759 45.6395 35.7253C45.2538 35.8746 44.8244 35.9493 44.3516 35.9493ZM44.3516 34.4933C44.8369 34.4933 45.2164 34.3564 45.4902 34.0826C45.7764 33.8088 45.9195 33.4106 45.9195 32.888V32.1786C45.9195 31.656 45.7764 31.2578 45.4902 30.984C45.2164 30.7102 44.8369 30.5733 44.3516 30.5733C43.8662 30.5733 43.4805 30.7102 43.1942 30.984C42.9205 31.2578 42.7836 31.656 42.7836 32.1786V32.888C42.7836 33.4106 42.9205 33.8088 43.1942 34.0826C43.4805 34.3564 43.8662 34.4933 44.3516 34.4933ZM53.3114 42.4825C52.8386 42.4825 52.403 42.4078 52.0048 42.2585C51.619 42.1092 51.283 41.8976 50.9968 41.6238C50.723 41.3501 50.5115 41.0265 50.3621 40.6532C50.2128 40.2799 50.1381 39.8692 50.1381 39.4212V38.7119C50.1381 38.2639 50.2128 37.8532 50.3621 37.4799C50.5115 37.1066 50.723 36.783 50.9968 36.5092C51.283 36.2355 51.619 36.0239 52.0048 35.8746C52.403 35.7253 52.8386 35.6506 53.3114 35.6506C53.7843 35.6506 54.2136 35.7253 54.5994 35.8746C54.9852 36.0239 55.315 36.2355 55.5887 36.5092C55.875 36.783 56.0927 37.1066 56.2421 37.4799C56.4038 37.8532 56.4847 38.2639 56.4847 38.7119V39.4212C56.4847 39.8692 56.4038 40.2799 56.2421 40.6532C56.0927 41.0265 55.875 41.3501 55.5887 41.6238C55.315 41.8976 54.9852 42.1092 54.5994 42.2585C54.2136 42.4078 53.7843 42.4825 53.3114 42.4825ZM53.3114 41.0265C53.7968 41.0265 54.1763 40.8896 54.4501 40.6159C54.7363 40.3421 54.8794 39.9439 54.8794 39.4212V38.7119C54.8794 38.1892 54.7363 37.791 54.4501 37.5172C54.1763 37.2435 53.7968 37.1066 53.3114 37.1066C52.8261 37.1066 52.4403 37.2435 52.1541 37.5172C51.8803 37.791 51.7435 38.1892 51.7435 38.7119V39.4212C51.7435 39.9439 51.8803 40.3421 52.1541 40.6159C52.4403 40.8896 52.8261 41.0265 53.3114 41.0265ZM51.7061 29.2667H53.4981L45.9569 42.3332H44.1649L51.7061 29.2667Z" fill="white"/>
</svg>
