<svg width="70" height="70" viewBox="0 0 70 70" fill="none" xmlns="http://www.w3.org/2000/svg">
<path d="M29.6432 4.66458C32.7139 1.99069 37.2861 1.99069 40.3568 4.66458V4.66458C42.1516 6.22742 44.5393 6.92854 46.8941 6.58412V6.58412C50.923 5.99484 54.7694 8.46677 55.907 12.3763V12.3763C56.5719 14.6614 58.2016 16.5421 60.3688 17.5255V17.5255C64.0766 19.2079 65.976 23.367 64.8194 27.2709V27.2709C64.1433 29.5527 64.4975 32.016 65.789 34.0149V34.0149C67.9987 37.4349 67.348 41.9606 64.2643 44.6195V44.6195C62.4619 46.1735 61.4281 48.4372 61.4339 50.8171V50.8171C61.4439 54.8888 58.4497 58.3442 54.418 58.9139V58.9139C52.0616 59.2468 49.9681 60.5923 48.6863 62.5974V62.5974C46.4933 66.0281 42.1063 67.3163 38.4067 65.6158V65.6158C36.2443 64.6219 33.7557 64.6219 31.5933 65.6158V65.6158C27.8937 67.3163 23.5067 66.0281 21.3137 62.5974V62.5974C20.0319 60.5923 17.9384 59.2468 15.582 58.9139V58.9139C11.5503 58.3442 8.55615 54.8888 8.56606 50.8171V50.8171C8.57186 48.4372 7.53806 46.1735 5.7357 44.6195V44.6195C2.65203 41.9606 2.00133 37.4349 4.211 34.0149V34.0149C5.50251 32.016 5.85667 29.5527 5.18064 27.2709V27.2709C4.02399 23.367 5.92336 19.2079 9.63123 17.5255V17.5255C11.7984 16.5421 13.4281 14.6614 14.093 12.3763V12.3763C15.2306 8.46677 19.077 5.99484 23.1059 6.58412V6.58412C25.4607 6.92854 27.8484 6.22742 29.6432 4.66458V4.66458Z" fill="#FD4D35"/>
<path d="M12.6 36.7147H19.1332V38.2454H12.6V36.7147ZM20.4435 37.7974L26.2301 29.2668H28.5074V37.7974H30.1501V39.4027H28.5074V42.3333H26.7528V39.4027H20.4435V37.7974ZM26.7528 37.7974V31.2268L22.3662 37.7974H26.7528ZM36.318 42.4827C35.6336 42.4827 35.0114 42.3707 34.4514 42.1467C33.9038 41.9227 33.4372 41.568 33.0514 41.0827C32.6656 40.5849 32.3669 39.9503 32.1554 39.1787C31.9438 38.3947 31.8381 37.449 31.8381 36.3414V35.2588C31.8381 34.1637 31.9438 33.2304 32.1554 32.4588C32.3669 31.6748 32.6656 31.0402 33.0514 30.5548C33.4496 30.0571 33.9225 29.6962 34.47 29.4722C35.03 29.2357 35.646 29.1175 36.318 29.1175C37.0024 29.1175 37.6184 29.2295 38.166 29.4535C38.726 29.6775 39.1989 30.0384 39.5846 30.5362C39.9704 31.0215 40.2691 31.6561 40.4806 32.4401C40.6922 33.2117 40.7979 34.1512 40.7979 35.2588V36.3414C40.7979 37.4365 40.6922 38.3761 40.4806 39.1601C40.2691 39.9316 39.9642 40.5663 39.566 41.064C39.1802 41.5494 38.7073 41.9102 38.1473 42.1467C37.5998 42.3707 36.99 42.4827 36.318 42.4827ZM36.318 40.8027C36.7287 40.8027 37.0958 40.7343 37.4193 40.5974C37.7553 40.448 38.0353 40.2054 38.2593 39.8694C38.4833 39.5209 38.6575 39.0605 38.782 38.4881C38.9064 37.9156 38.9686 37.2001 38.9686 36.3414V35.2588C38.9686 34.4001 38.9064 33.6908 38.782 33.1308C38.6575 32.5584 38.4771 32.0979 38.2406 31.7495C38.0166 31.401 37.7367 31.1584 37.4007 31.0215C37.0771 30.8722 36.7162 30.7975 36.318 30.7975C35.9073 30.7975 35.534 30.8722 35.198 31.0215C34.8745 31.1584 34.6007 31.401 34.3767 31.7495C34.1527 32.0855 33.9785 32.5397 33.854 33.1121C33.7296 33.6846 33.6674 34.4001 33.6674 35.2588V36.3414C33.6674 37.2001 33.7296 37.9156 33.854 38.4881C33.9785 39.0481 34.1527 39.5023 34.3767 39.8507C34.6131 40.1991 34.8931 40.448 35.2167 40.5974C35.5527 40.7343 35.9198 40.8027 36.318 40.8027ZM45.9378 35.9494C45.4649 35.9494 45.0293 35.8748 44.6311 35.7254C44.2454 35.5761 43.9094 35.3645 43.6231 35.0908C43.3494 34.817 43.1378 34.4934 42.9885 34.1201C42.8391 33.7468 42.7645 33.3361 42.7645 32.8881V32.1788C42.7645 31.7308 42.8391 31.3202 42.9885 30.9468C43.1378 30.5735 43.3494 30.2499 43.6231 29.9762C43.9094 29.7024 44.2454 29.4908 44.6311 29.3415C45.0293 29.1922 45.4649 29.1175 45.9378 29.1175C46.4107 29.1175 46.84 29.1922 47.2258 29.3415C47.6115 29.4908 47.9413 29.7024 48.2151 29.9762C48.5013 30.2499 48.7191 30.5735 48.8684 30.9468C49.0302 31.3202 49.1111 31.7308 49.1111 32.1788V32.8881C49.1111 33.3361 49.0302 33.7468 48.8684 34.1201C48.7191 34.4934 48.5013 34.817 48.2151 35.0908C47.9413 35.3645 47.6115 35.5761 47.2258 35.7254C46.84 35.8748 46.4107 35.9494 45.9378 35.9494ZM45.9378 34.4934C46.4231 34.4934 46.8027 34.3566 47.0764 34.0828C47.3626 33.809 47.5058 33.4108 47.5058 32.8881V32.1788C47.5058 31.6561 47.3626 31.2579 47.0764 30.9842C46.8027 30.7104 46.4231 30.5735 45.9378 30.5735C45.4524 30.5735 45.0667 30.7104 44.7805 30.9842C44.5067 31.2579 44.3698 31.6561 44.3698 32.1788V32.8881C44.3698 33.4108 44.5067 33.809 44.7805 34.0828C45.0667 34.3566 45.4524 34.4934 45.9378 34.4934ZM54.8977 42.4827C54.4248 42.4827 53.9892 42.408 53.591 42.2587C53.2052 42.1093 52.8692 41.8978 52.583 41.624C52.3092 41.3502 52.0977 41.0267 51.9484 40.6534C51.799 40.28 51.7244 39.8694 51.7244 39.4214V38.7121C51.7244 38.2641 51.799 37.8534 51.9484 37.4801C52.0977 37.1067 52.3092 36.7832 52.583 36.5094C52.8692 36.2356 53.2052 36.0241 53.591 35.8748C53.9892 35.7254 54.4248 35.6508 54.8977 35.6508C55.3705 35.6508 55.7999 35.7254 56.1856 35.8748C56.5714 36.0241 56.9012 36.2356 57.175 36.5094C57.4612 36.7832 57.679 37.1067 57.8283 37.4801C57.9901 37.8534 58.0709 38.2641 58.0709 38.7121V39.4214C58.0709 39.8694 57.9901 40.28 57.8283 40.6534C57.679 41.0267 57.4612 41.3502 57.175 41.624C56.9012 41.8978 56.5714 42.1093 56.1856 42.2587C55.7999 42.408 55.3705 42.4827 54.8977 42.4827ZM54.8977 41.0267C55.383 41.0267 55.7625 40.8898 56.0363 40.616C56.3225 40.3423 56.4656 39.944 56.4656 39.4214V38.7121C56.4656 38.1894 56.3225 37.7912 56.0363 37.5174C55.7625 37.2436 55.383 37.1067 54.8977 37.1067C54.4123 37.1067 54.0266 37.2436 53.7403 37.5174C53.4666 37.7912 53.3297 38.1894 53.3297 38.7121V39.4214C53.3297 39.944 53.4666 40.3423 53.7403 40.616C54.0266 40.8898 54.4123 41.0267 54.8977 41.0267ZM53.2923 29.2668H55.0843L47.5431 42.3333H45.7511L53.2923 29.2668Z" fill="white"/>
</svg>
