<svg width="55" height="22" viewBox="0 0 55 22" fill="none" xmlns="http://www.w3.org/2000/svg">
<path d="M3.32 6.08L0.4 8.06V6.02L3.32 4H5.2V18H3.32V6.08ZM7.79219 16.28L12.5722 11.66C13.4255 10.82 14.0455 10.1333 14.4322 9.6C14.8322 9.05333 15.0322 8.52667 15.0322 8.02C15.0322 7.31333 14.7922 6.74 14.3122 6.3C13.8322 5.86 13.1922 5.64 12.3922 5.64C11.5922 5.64 10.9522 5.86667 10.4722 6.32C9.99219 6.76 9.75219 7.35333 9.75219 8.1H7.79219C7.79219 7.47333 7.89885 6.9 8.11219 6.38C8.33885 5.86 8.65219 5.41333 9.05219 5.04C9.45219 4.65333 9.93219 4.36 10.4922 4.16C11.0655 3.94667 11.6989 3.84 12.3922 3.84C13.0855 3.84 13.7122 3.94667 14.2722 4.16C14.8455 4.36 15.3322 4.64667 15.7322 5.02C16.1322 5.39333 16.4389 5.84 16.6522 6.36C16.8789 6.86667 16.9922 7.42 16.9922 8.02C16.9922 8.76667 16.7322 9.52 16.2122 10.28C15.6922 11.04 14.9389 11.88 13.9522 12.8L10.2722 16.28H16.9922V18H7.79219V16.28ZM23.6883 18.16C23.1283 18.16 22.6216 18.08 22.1683 17.92C21.7149 17.76 21.3149 17.5333 20.9683 17.24C20.6216 16.9467 20.3349 16.6 20.1083 16.2C19.8816 15.8 19.7083 15.3667 19.5883 14.9H21.5683C21.7149 15.3 21.9549 15.6467 22.2883 15.94C22.6216 16.22 23.0883 16.36 23.6883 16.36C24.1149 16.36 24.5083 16.2933 24.8683 16.16C25.2283 16.0133 25.5349 15.7733 25.7883 15.44C26.0549 15.0933 26.2616 14.64 26.4083 14.08C26.5683 13.52 26.6683 12.82 26.7083 11.98C26.3483 12.42 25.9083 12.76 25.3883 13C24.8816 13.24 24.3149 13.36 23.6883 13.36C22.2749 13.36 21.1683 12.96 20.3683 12.16C19.5816 11.36 19.1883 10.2333 19.1883 8.78V8.42C19.1883 7.72667 19.3016 7.1 19.5283 6.54C19.7683 5.96667 20.0949 5.48 20.5083 5.08C20.9216 4.68 21.4083 4.37333 21.9683 4.16C22.5283 3.94667 23.1349 3.84 23.7883 3.84C24.5083 3.84 25.1616 3.95333 25.7483 4.18C26.3349 4.40667 26.8349 4.76 27.2483 5.24C27.6749 5.72 28.0016 6.34 28.2283 7.1C28.4683 7.84667 28.5883 8.75333 28.5883 9.82V10.98C28.5883 12.2867 28.4683 13.4 28.2283 14.32C27.9883 15.2267 27.6549 15.9667 27.2283 16.54C26.8016 17.1 26.2883 17.5133 25.6883 17.78C25.0883 18.0333 24.4216 18.16 23.6883 18.16ZM21.1483 8.78C21.1483 9.66 21.3883 10.3467 21.8683 10.84C22.3483 11.32 22.9949 11.56 23.8083 11.56C24.6883 11.56 25.3749 11.32 25.8683 10.84C26.3749 10.36 26.6283 9.70667 26.6283 8.88V8.52C26.6283 7.57333 26.3616 6.86 25.8283 6.38C25.2949 5.88667 24.6149 5.64 23.7883 5.64C22.9749 5.64 22.3283 5.88667 21.8483 6.38C21.3816 6.87333 21.1483 7.55333 21.1483 8.42V8.78ZM35.5828 18.16C35.0228 18.16 34.5161 18.08 34.0628 17.92C33.6095 17.76 33.2095 17.5333 32.8628 17.24C32.5161 16.9467 32.2295 16.6 32.0028 16.2C31.7761 15.8 31.6028 15.3667 31.4828 14.9H33.4628C33.6095 15.3 33.8495 15.6467 34.1828 15.94C34.5161 16.22 34.9828 16.36 35.5828 16.36C36.0095 16.36 36.4028 16.2933 36.7628 16.16C37.1228 16.0133 37.4295 15.7733 37.6828 15.44C37.9495 15.0933 38.1561 14.64 38.3028 14.08C38.4628 13.52 38.5628 12.82 38.6028 11.98C38.2428 12.42 37.8028 12.76 37.2828 13C36.7761 13.24 36.2095 13.36 35.5828 13.36C34.1695 13.36 33.0628 12.96 32.2628 12.16C31.4761 11.36 31.0828 10.2333 31.0828 8.78V8.42C31.0828 7.72667 31.1961 7.1 31.4228 6.54C31.6628 5.96667 31.9895 5.48 32.4028 5.08C32.8161 4.68 33.3028 4.37333 33.8628 4.16C34.4228 3.94667 35.0295 3.84 35.6828 3.84C36.4028 3.84 37.0561 3.95333 37.6428 4.18C38.2295 4.40667 38.7295 4.76 39.1428 5.24C39.5695 5.72 39.8961 6.34 40.1228 7.1C40.3628 7.84667 40.4828 8.75333 40.4828 9.82V10.98C40.4828 12.2867 40.3628 13.4 40.1228 14.32C39.8828 15.2267 39.5495 15.9667 39.1228 16.54C38.6961 17.1 38.1828 17.5133 37.5828 17.78C36.9828 18.0333 36.3161 18.16 35.5828 18.16ZM33.0428 8.78C33.0428 9.66 33.2828 10.3467 33.7628 10.84C34.2428 11.32 34.8895 11.56 35.7028 11.56C36.5828 11.56 37.2695 11.32 37.7628 10.84C38.2695 10.36 38.5228 9.70667 38.5228 8.88V8.52C38.5228 7.57333 38.2561 6.86 37.7228 6.38C37.1895 5.88667 36.5095 5.64 35.6828 5.64C34.8695 5.64 34.2228 5.88667 33.7428 6.38C33.2761 6.87333 33.0428 7.55333 33.0428 8.42V8.78ZM43.9773 15.54H42.0773V14.06H43.9773V12.72H42.0773V11.04H43.9773V4H48.3773C50.1773 4 51.4907 4.38667 52.3173 5.16C53.1573 5.92 53.5773 6.98667 53.5773 8.36C53.5773 9.70667 53.1507 10.7733 52.2973 11.56C51.4573 12.3333 50.1507 12.72 48.3773 12.72H45.8573V14.06H50.5773V15.54H45.8573V18H43.9773V15.54ZM45.8573 5.72V11.04H48.3773C49.564 11.04 50.404 10.82 50.8973 10.38C51.3907 9.94 51.6373 9.27333 51.6373 8.38C51.6373 7.5 51.384 6.84 50.8773 6.4C50.384 5.94667 49.5507 5.72 48.3773 5.72H45.8573Z" fill="#95979F"/>
<line y1="12.4" x2="55" y2="12.4" stroke="#95979F" stroke-width="1.2"/>
</svg>
