<svg width="60" height="22" viewBox="0 0 60 22" fill="none" xmlns="http://www.w3.org/2000/svg">
<path d="M5.7 18.16C4.48667 18.16 3.44667 17.8533 2.58 17.24C1.71333 16.6267 1.15333 15.7333 0.9 14.56H2.86C3.08667 15.16 3.44 15.6133 3.92 15.92C4.4 16.2133 4.99333 16.36 5.7 16.36C6.58 16.36 7.27333 16.1 7.78 15.58C8.28667 15.06 8.54 14.3267 8.54 13.38C8.54 12.4467 8.28667 11.72 7.78 11.2C7.27333 10.68 6.58 10.42 5.7 10.42C5.1 10.42 4.58 10.54 4.14 10.78C3.71333 11.02 3.38667 11.3133 3.16 11.66H1.3L1.9 4H9.6V5.72H3.62L3.32 9.54C4.04 8.92667 4.94667 8.62 6.04 8.62C6.68 8.62 7.27333 8.73333 7.82 8.96C8.36667 9.18667 8.84 9.51333 9.24 9.94C9.64 10.3533 9.94667 10.8533 10.16 11.44C10.3867 12.0133 10.5 12.66 10.5 13.38C10.5 14.1 10.3867 14.76 10.16 15.36C9.93333 15.9467 9.60667 16.4467 9.18 16.86C8.76667 17.2733 8.26667 17.5933 7.68 17.82C7.09333 18.0467 6.43333 18.16 5.7 18.16ZM17.0086 18.16C16.4486 18.16 15.9419 18.08 15.4886 17.92C15.0353 17.76 14.6353 17.5333 14.2886 17.24C13.9419 16.9467 13.6553 16.6 13.4286 16.2C13.2019 15.8 13.0286 15.3667 12.9086 14.9H14.8886C15.0353 15.3 15.2753 15.6467 15.6086 15.94C15.9419 16.22 16.4086 16.36 17.0086 16.36C17.4353 16.36 17.8286 16.2933 18.1886 16.16C18.5486 16.0133 18.8553 15.7733 19.1086 15.44C19.3753 15.0933 19.5819 14.64 19.7286 14.08C19.8886 13.52 19.9886 12.82 20.0286 11.98C19.6686 12.42 19.2286 12.76 18.7086 13C18.2019 13.24 17.6353 13.36 17.0086 13.36C15.5953 13.36 14.4886 12.96 13.6886 12.16C12.9019 11.36 12.5086 10.2333 12.5086 8.78V8.42C12.5086 7.72667 12.6219 7.1 12.8486 6.54C13.0886 5.96667 13.4153 5.48 13.8286 5.08C14.2419 4.68 14.7286 4.37333 15.2886 4.16C15.8486 3.94667 16.4553 3.84 17.1086 3.84C17.8286 3.84 18.4819 3.95333 19.0686 4.18C19.6553 4.40667 20.1553 4.76 20.5686 5.24C20.9953 5.72 21.3219 6.34 21.5486 7.1C21.7886 7.84667 21.9086 8.75333 21.9086 9.82V10.98C21.9086 12.2867 21.7886 13.4 21.5486 14.32C21.3086 15.2267 20.9753 15.9667 20.5486 16.54C20.1219 17.1 19.6086 17.5133 19.0086 17.78C18.4086 18.0333 17.7419 18.16 17.0086 18.16ZM14.4686 8.78C14.4686 9.66 14.7086 10.3467 15.1886 10.84C15.6686 11.32 16.3153 11.56 17.1286 11.56C18.0086 11.56 18.6953 11.32 19.1886 10.84C19.6953 10.36 19.9486 9.70667 19.9486 8.88V8.52C19.9486 7.57333 19.6819 6.86 19.1486 6.38C18.6153 5.88667 17.9353 5.64 17.1086 5.64C16.2953 5.64 15.6486 5.88667 15.1686 6.38C14.7019 6.87333 14.4686 7.55333 14.4686 8.42V8.78ZM28.9031 18.16C28.3431 18.16 27.8365 18.08 27.3831 17.92C26.9298 17.76 26.5298 17.5333 26.1831 17.24C25.8365 16.9467 25.5498 16.6 25.3231 16.2C25.0965 15.8 24.9231 15.3667 24.8031 14.9H26.7831C26.9298 15.3 27.1698 15.6467 27.5031 15.94C27.8365 16.22 28.3031 16.36 28.9031 16.36C29.3298 16.36 29.7231 16.2933 30.0831 16.16C30.4431 16.0133 30.7498 15.7733 31.0031 15.44C31.2698 15.0933 31.4765 14.64 31.6231 14.08C31.7831 13.52 31.8831 12.82 31.9231 11.98C31.5631 12.42 31.1231 12.76 30.6031 13C30.0965 13.24 29.5298 13.36 28.9031 13.36C27.4898 13.36 26.3831 12.96 25.5831 12.16C24.7965 11.36 24.4031 10.2333 24.4031 8.78V8.42C24.4031 7.72667 24.5165 7.1 24.7431 6.54C24.9831 5.96667 25.3098 5.48 25.7231 5.08C26.1365 4.68 26.6231 4.37333 27.1831 4.16C27.7431 3.94667 28.3498 3.84 29.0031 3.84C29.7231 3.84 30.3765 3.95333 30.9631 4.18C31.5498 4.40667 32.0498 4.76 32.4631 5.24C32.8898 5.72 33.2165 6.34 33.4431 7.1C33.6831 7.84667 33.8031 8.75333 33.8031 9.82V10.98C33.8031 12.2867 33.6831 13.4 33.4431 14.32C33.2031 15.2267 32.8698 15.9667 32.4431 16.54C32.0165 17.1 31.5031 17.5133 30.9031 17.78C30.3031 18.0333 29.6365 18.16 28.9031 18.16ZM26.3631 8.78C26.3631 9.66 26.6031 10.3467 27.0831 10.84C27.5631 11.32 28.2098 11.56 29.0231 11.56C29.9031 11.56 30.5898 11.32 31.0831 10.84C31.5898 10.36 31.8431 9.70667 31.8431 8.88V8.52C31.8431 7.57333 31.5765 6.86 31.0431 6.38C30.5098 5.88667 29.8298 5.64 29.0031 5.64C28.1898 5.64 27.5431 5.88667 27.0631 6.38C26.5965 6.87333 26.3631 7.55333 26.3631 8.42V8.78ZM41.1977 18.16C40.4643 18.16 39.7977 18.04 39.1977 17.8C38.611 17.56 38.111 17.18 37.6977 16.66C37.2843 16.1267 36.9643 15.4467 36.7377 14.62C36.511 13.78 36.3977 12.7667 36.3977 11.58V10.42C36.3977 9.24667 36.511 8.24667 36.7377 7.42C36.9643 6.58 37.2843 5.9 37.6977 5.38C38.1243 4.84667 38.631 4.46 39.2177 4.22C39.8177 3.96667 40.4777 3.84 41.1977 3.84C41.931 3.84 42.591 3.96 43.1777 4.2C43.7777 4.44 44.2843 4.82667 44.6977 5.36C45.111 5.88 45.431 6.56 45.6577 7.4C45.8843 8.22667 45.9977 9.23333 45.9977 10.42V11.58C45.9977 12.7533 45.8843 13.76 45.6577 14.6C45.431 15.4267 45.1043 16.1067 44.6777 16.64C44.2643 17.16 43.7577 17.5467 43.1577 17.8C42.571 18.04 41.9177 18.16 41.1977 18.16ZM41.1977 16.36C41.6377 16.36 42.031 16.2867 42.3777 16.14C42.7377 15.98 43.0377 15.72 43.2777 15.36C43.5177 14.9867 43.7043 14.4933 43.8377 13.88C43.971 13.2667 44.0377 12.5 44.0377 11.58V10.42C44.0377 9.5 43.971 8.74 43.8377 8.14C43.7043 7.52667 43.511 7.03333 43.2577 6.66C43.0177 6.28667 42.7177 6.02667 42.3577 5.88C42.011 5.72 41.6243 5.64 41.1977 5.64C40.7577 5.64 40.3577 5.72 39.9977 5.88C39.651 6.02667 39.3577 6.28667 39.1177 6.66C38.8777 7.02 38.691 7.50667 38.5577 8.12C38.4243 8.73333 38.3577 9.5 38.3577 10.42V11.58C38.3577 12.5 38.4243 13.2667 38.5577 13.88C38.691 14.48 38.8777 14.9667 39.1177 15.34C39.371 15.7133 39.671 15.98 40.0177 16.14C40.3777 16.2867 40.771 16.36 41.1977 16.36ZM49.5047 15.54H47.6047V14.06H49.5047V12.72H47.6047V11.04H49.5047V4H53.9047C55.7047 4 57.018 4.38667 57.8447 5.16C58.6847 5.92 59.1047 6.98667 59.1047 8.36C59.1047 9.70667 58.678 10.7733 57.8247 11.56C56.9847 12.3333 55.678 12.72 53.9047 12.72H51.3847V14.06H56.1047V15.54H51.3847V18H49.5047V15.54ZM51.3847 5.72V11.04H53.9047C55.0914 11.04 55.9314 10.82 56.4247 10.38C56.918 9.94 57.1647 9.27333 57.1647 8.38C57.1647 7.5 56.9114 6.84 56.4047 6.4C55.9114 5.94667 55.078 5.72 53.9047 5.72H51.3847Z" fill="#95979F"/>
<line y1="12.4" x2="60" y2="12.4" stroke="#95979F" stroke-width="1.2"/>
</svg>
