<svg width="49" height="22" viewBox="0 0 49 22" fill="none" xmlns="http://www.w3.org/2000/svg">
<path d="M5.7 18.16C5.14 18.16 4.63333 18.08 4.18 17.92C3.72667 17.76 3.32667 17.5333 2.98 17.24C2.63333 16.9467 2.34667 16.6 2.12 16.2C1.89333 15.8 1.72 15.3667 1.6 14.9H3.58C3.72667 15.3 3.96667 15.6467 4.3 15.94C4.63333 16.22 5.1 16.36 5.7 16.36C6.12667 16.36 6.52 16.2933 6.88 16.16C7.24 16.0133 7.54667 15.7733 7.8 15.44C8.06667 15.0933 8.27333 14.64 8.42 14.08C8.58 13.52 8.68 12.82 8.72 11.98C8.36 12.42 7.92 12.76 7.4 13C6.89333 13.24 6.32667 13.36 5.7 13.36C4.28667 13.36 3.18 12.96 2.38 12.16C1.59333 11.36 1.2 10.2333 1.2 8.78V8.42C1.2 7.72667 1.31333 7.1 1.54 6.54C1.78 5.96667 2.10667 5.48 2.52 5.08C2.93333 4.68 3.42 4.37333 3.98 4.16C4.54 3.94667 5.14667 3.84 5.8 3.84C6.52 3.84 7.17333 3.95333 7.76 4.18C8.34667 4.40667 8.84667 4.76 9.26 5.24C9.68667 5.72 10.0133 6.34 10.24 7.1C10.48 7.84667 10.6 8.75333 10.6 9.82V10.98C10.6 12.2867 10.48 13.4 10.24 14.32C10 15.2267 9.66667 15.9667 9.24 16.54C8.81333 17.1 8.3 17.5133 7.7 17.78C7.1 18.0333 6.43333 18.16 5.7 18.16ZM3.16 8.78C3.16 9.66 3.4 10.3467 3.88 10.84C4.36 11.32 5.00667 11.56 5.82 11.56C6.7 11.56 7.38667 11.32 7.88 10.84C8.38667 10.36 8.64 9.70667 8.64 8.88V8.52C8.64 7.57333 8.37333 6.86 7.84 6.38C7.30667 5.88667 6.62667 5.64 5.8 5.64C4.98667 5.64 4.34 5.88667 3.86 6.38C3.39333 6.87333 3.16 7.55333 3.16 8.42V8.78ZM17.5945 18.16C17.0345 18.16 16.5279 18.08 16.0745 17.92C15.6212 17.76 15.2212 17.5333 14.8745 17.24C14.5279 16.9467 14.2412 16.6 14.0145 16.2C13.7879 15.8 13.6145 15.3667 13.4945 14.9H15.4745C15.6212 15.3 15.8612 15.6467 16.1945 15.94C16.5279 16.22 16.9945 16.36 17.5945 16.36C18.0212 16.36 18.4145 16.2933 18.7745 16.16C19.1345 16.0133 19.4412 15.7733 19.6945 15.44C19.9612 15.0933 20.1679 14.64 20.3145 14.08C20.4745 13.52 20.5745 12.82 20.6145 11.98C20.2545 12.42 19.8145 12.76 19.2945 13C18.7879 13.24 18.2212 13.36 17.5945 13.36C16.1812 13.36 15.0745 12.96 14.2745 12.16C13.4879 11.36 13.0945 10.2333 13.0945 8.78V8.42C13.0945 7.72667 13.2079 7.1 13.4345 6.54C13.6745 5.96667 14.0012 5.48 14.4145 5.08C14.8279 4.68 15.3145 4.37333 15.8745 4.16C16.4345 3.94667 17.0412 3.84 17.6945 3.84C18.4145 3.84 19.0679 3.95333 19.6545 4.18C20.2412 4.40667 20.7412 4.76 21.1545 5.24C21.5812 5.72 21.9079 6.34 22.1345 7.1C22.3745 7.84667 22.4945 8.75333 22.4945 9.82V10.98C22.4945 12.2867 22.3745 13.4 22.1345 14.32C21.8945 15.2267 21.5612 15.9667 21.1345 16.54C20.7079 17.1 20.1945 17.5133 19.5945 17.78C18.9945 18.0333 18.3279 18.16 17.5945 18.16ZM15.0545 8.78C15.0545 9.66 15.2945 10.3467 15.7745 10.84C16.2545 11.32 16.9012 11.56 17.7145 11.56C18.5945 11.56 19.2812 11.32 19.7745 10.84C20.2812 10.36 20.5345 9.70667 20.5345 8.88V8.52C20.5345 7.57333 20.2679 6.86 19.7345 6.38C19.2012 5.88667 18.5212 5.64 17.6945 5.64C16.8812 5.64 16.2345 5.88667 15.7545 6.38C15.2879 6.87333 15.0545 7.55333 15.0545 8.42V8.78ZM29.4891 18.16C28.9291 18.16 28.4224 18.08 27.9691 17.92C27.5157 17.76 27.1157 17.5333 26.7691 17.24C26.4224 16.9467 26.1357 16.6 25.9091 16.2C25.6824 15.8 25.5091 15.3667 25.3891 14.9H27.3691C27.5157 15.3 27.7557 15.6467 28.0891 15.94C28.4224 16.22 28.8891 16.36 29.4891 16.36C29.9157 16.36 30.3091 16.2933 30.6691 16.16C31.0291 16.0133 31.3357 15.7733 31.5891 15.44C31.8557 15.0933 32.0624 14.64 32.2091 14.08C32.3691 13.52 32.4691 12.82 32.5091 11.98C32.1491 12.42 31.7091 12.76 31.1891 13C30.6824 13.24 30.1157 13.36 29.4891 13.36C28.0757 13.36 26.9691 12.96 26.1691 12.16C25.3824 11.36 24.9891 10.2333 24.9891 8.78V8.42C24.9891 7.72667 25.1024 7.1 25.3291 6.54C25.5691 5.96667 25.8957 5.48 26.3091 5.08C26.7224 4.68 27.2091 4.37333 27.7691 4.16C28.3291 3.94667 28.9357 3.84 29.5891 3.84C30.3091 3.84 30.9624 3.95333 31.5491 4.18C32.1357 4.40667 32.6357 4.76 33.0491 5.24C33.4757 5.72 33.8024 6.34 34.0291 7.1C34.2691 7.84667 34.3891 8.75333 34.3891 9.82V10.98C34.3891 12.2867 34.2691 13.4 34.0291 14.32C33.7891 15.2267 33.4557 15.9667 33.0291 16.54C32.6024 17.1 32.0891 17.5133 31.4891 17.78C30.8891 18.0333 30.2224 18.16 29.4891 18.16ZM26.9491 8.78C26.9491 9.66 27.1891 10.3467 27.6691 10.84C28.1491 11.32 28.7957 11.56 29.6091 11.56C30.4891 11.56 31.1757 11.32 31.6691 10.84C32.1757 10.36 32.4291 9.70667 32.4291 8.88V8.52C32.4291 7.57333 32.1624 6.86 31.6291 6.38C31.0957 5.88667 30.4157 5.64 29.5891 5.64C28.7757 5.64 28.1291 5.88667 27.6491 6.38C27.1824 6.87333 26.9491 7.55333 26.9491 8.42V8.78ZM37.8836 15.54H35.9836V14.06H37.8836V12.72H35.9836V11.04H37.8836V4H42.2836C44.0836 4 45.3969 4.38667 46.2236 5.16C47.0636 5.92 47.4836 6.98667 47.4836 8.36C47.4836 9.70667 47.0569 10.7733 46.2036 11.56C45.3636 12.3333 44.0569 12.72 42.2836 12.72H39.7636V14.06H44.4836V15.54H39.7636V18H37.8836V15.54ZM39.7636 5.72V11.04H42.2836C43.4703 11.04 44.3103 10.82 44.8036 10.38C45.2969 9.94 45.5436 9.27333 45.5436 8.38C45.5436 7.5 45.2903 6.84 44.7836 6.4C44.2903 5.94667 43.4569 5.72 42.2836 5.72H39.7636Z" fill="#95979F"/>
<line y1="12.4" x2="49" y2="12.4" stroke="#95979F" stroke-width="1.2"/>
</svg>
